<?xml version="1.0" encoding="UTF-8" standalone="no"?>
<!DOCTYPE svg PUBLIC "-//W3C//DTD SVG 1.1//EN"
 "http://www.w3.org/Graphics/SVG/1.1/DTD/svg11.dtd">
<!-- Generated by graphviz version 2.44.1 (20200629.0846)
 -->
<!-- Title: model Pages: 1 -->
<svg width="424pt" height="432pt"
     viewBox="0.00 0.00 424.15 432.00" xmlns="http://www.w3.org/2000/svg">
<g id="graph0" class="graph" transform="scale(1.96 1.96) rotate(0) translate(4 216)">
<title>model</title>
<polygon fill="white" stroke="transparent" points="-4,4 -4,-216 212,-216 212,4 -4,4"/>
<g id="clust1" class="cluster">
<title>cluster_0</title>
<polygon fill="none" stroke="black" points="8,-8 8,-204 200,-204 200,-8 8,-8"/>
<text text-anchor="middle" x="104" y="-188.8" font-family="Times,serif" font-size="14.00">group</text>
</g>
<g id="clust2" class="cluster">
<title>cluster_1</title>
<polygon fill="none" stroke="black" points="16,-29 16,-127 192,-127 192,-29 16,-29"/>
<text text-anchor="middle" x="104" y="-111.8" font-family="Times,serif" font-size="14.00">group</text>
</g>
<!-- entity_3 -->
<g id="node1" class="node">
<title>entity_3</title>
<polygon fill="none" stroke="black" points="24,-38 24,-74 78,-74 78,-38 24,-38"/>
<text text-anchor="middle" x="51" y="-52.3" font-family="Times,serif" font-size="14.00">dog</text>
</g>
<!-- entity_2 -->
<g id="node2" class="node">
<title>entity_2</title>
<polygon fill="none" stroke="black" points="130,-38 130,-74 184,-74 184,-38 130,-38"/>
<text text-anchor="middle" x="157" y="-52.3" font-family="Times,serif" font-size="14.00">couch</text>
</g>
<!-- entity_3&#45;&gt;entity_2 -->
<g id="edge1" class="edge">
<title>entity_3&#45;&gt;entity_2</title>
<path fill="none" stroke="black" d="M78.06,-55.31C83.96,-55.18 90.19,-55.07 96,-55 103.59,-54.91 111.72,-54.96 119.47,-55.06"/>
<polygon fill="black" stroke="black" points="119.66,-58.57 129.72,-55.24 119.78,-51.57 119.66,-58.57"/>
<text text-anchor="middle" x="104" y="-58" font-family="Times,serif" font-size="10.00">ON</text>
</g>
<!-- entity_1 -->
<!-- entity_4 -->
<g id="node4" class="node">
<title>entity_4</title>
<polygon fill="none" stroke="black" points="130,-136 130,-172 184,-172 184,-136 130,-136"/>
<text text-anchor="middle" x="157" y="-150.3" font-family="Times,serif" font-size="14.00">house</text>
</g>
<!-- entity_1&#45;&gt;entity_4 -->
<g id="edge2" class="edge">
<title>entity_1&#45;&gt;entity_4</title>
<path fill="none" stroke="black" d="M109.19,-127C113.18,-129.3 117.12,-131.57 120.93,-133.77"/>
<polygon fill="black" stroke="black" points="119.4,-136.92 129.81,-138.89 122.89,-130.86 119.4,-136.92"/>
<text text-anchor="middle" x="104" y="-130" font-family="Times,serif" font-size="10.00">IN</text>
</g>
<!-- entity_0 -->
</g>
</svg>
